<svg xmlns="http://www.w3.org/2000/svg" version="1.1"  width="512" height="512" x="0" y="0" viewBox="0 0 2048 2048" style="enable-background:new 0 0 512 512" xml:space="preserve" class="">
    <g>
        <path fill="#982690" d="M1781.99 804.85c27.32 107.03-9.59 217.28-11.17 221.92-3.33 9.75-12.49 16.24-22.71 16.24-.39 0-.77-.01-1.16-.02a24 24 0 0 1-22.2-18.45c-3.58-15.13-8.6-28.38-15.01-39.69 8.54-8.91 15.3-17.71 20.49-25.44 6.52-9.71 5.01-22.46-3-30.41l.01-.01c4.59 4.55 8.89 9.46 12.89 14.72 4.95-36.25 6.7-82.5-4.65-126.99-13.5-52.86-45.87-94-93.6-118.96-37.86-19.79-83.14-28.64-129.99-26.34 8.97-1.63 16.62-8.32 19.01-17.73 2.54-10.03 3.99-20.17 4.33-30.42 46.22 1.23 90.59 11.94 128.89 31.96 60.14 31.44 100.9 83.18 117.87 149.62z" opacity="1" data-original="#212121" class=""></path>
        <path fill="#dbb8e0" d="M1735.48 816.72c11.35 44.49 9.6 90.74 4.65 126.99-4-5.26-8.3-10.17-12.89-14.72-7.62-7.58-16.06-14.17-25.3-19.78-27.98-16.96-57.85-21.15-80.55-21.15-19.2 0-33.28 3-36.72 3.81-100.14 20.14-197.4 16.65-265.48 9.21-4.83-.53-9.52-1.08-14.05-1.64a988.214 988.214 0 0 1-30.52-4.25c16.9-7.52 32.64-16.37 47.13-26.52 32.12-22.48 58.11-51.23 77.25-85.46 21.83-39.04 29.61-76.2 32.37-97.03 24.72-7.94 49.94-12.75 74.78-14.43h.03c1.94.13 3.86.01 5.71-.33 46.85-2.3 92.13 6.55 129.99 26.34 47.73 24.96 80.1 66.1 93.6 118.96zm-186.25-62.63c0-13.25-10.74-24-24-24h-4.72c-13.26 0-24 10.75-24 24 0 13.26 10.74 24 24 24h4.72c13.26 0 24-10.74 24-24z" opacity="1" data-original="#ffc850" class=""></path>
        <path fill="#982690" d="M1727.23 929c8.01 7.95 9.52 20.7 3 30.41a189.761 189.761 0 0 1-20.49 25.44c-8.4-14.83-19.21-26.33-32.33-34.37-.26-.16-.51-.31-.77-.46 5.46-5.89 10-11.81 13.75-17.38 7.39-11.01 22.3-13.93 33.3-6.54 1.29.87 2.48 1.84 3.54 2.9z" opacity="1" data-original="#212121" class=""></path>
        <path fill="#982690" d="m1727.24 928.99-.01.01a23.899 23.899 0 0 0-3.54-2.9c-11-7.39-25.91-4.47-33.3 6.54a143.22 143.22 0 0 1-13.75 17.38c-36.01-21.55-79.22-11.84-80.96-11.43-.42.11-.66.16-1.1.25-61.98 12.5-122.76 16.48-176.93 16.05-14.4-6.91-29.21-14.72-44.42-23.42-.63-.41-1.29-.8-1.98-1.16-.14-.07-.27-.14-.41-.21-13.4-7.72-27.11-16.13-41.12-25.23a23.988 23.988 0 0 0-10.53-3.75v-.04c68.08 7.44 165.34 10.93 265.48-9.21 3.44-.81 17.52-3.81 36.72-3.81 22.7 0 52.57 4.19 80.55 21.15 9.24 5.61 17.68 12.2 25.3 19.78z" opacity="1" data-original="#212121" class=""></path>
        <path fill="#982690" d="M1677.41 950.48c13.12 8.04 23.93 19.54 32.33 34.37-27.22 28.45-72.57 58.09-143.25 58.09-51.16 0-115.57-15.51-196.01-58.22 3.46-7.41 7.09-14.74 10.89-22.01 1.45-2.78 2.31-5.71 2.62-8.65 10.88.45 22.12.74 33.66.83 67.4 32.36 125.93 45.2 174.73 38.23 39.98-5.72 66.8-24.23 84.26-43.1.26.15.51.3.77.46z" opacity="1" data-original="#212121" class=""></path>
        <path fill="#dbb8e0" d="M1676.64 950.02c-17.46 18.87-44.28 37.38-84.26 43.1-48.8 6.97-107.33-5.87-174.73-38.23 54.17.43 114.95-3.55 176.93-16.05.44-.09.68-.14 1.1-.25 1.74-.41 44.95-10.12 80.96 11.43z" opacity="1" data-original="#ffc850" class=""></path>
        <path fill="#982690" d="M1525.23 730.09c13.26 0 24 10.75 24 24 0 13.26-10.74 24-24 24h-4.72c-13.26 0-24-10.74-24-24 0-13.25 10.74-24 24-24z" opacity="1" data-original="#212121" class=""></path>
        <path fill="#982690" d="M1458.35 459.62c53.25 58.89 78.62 112.75 76.88 163.65-15.91-.43-32.04.26-48.22 2.09 2.68-38.8-18.25-82.44-63.55-132.76-6.45-5.86-64.95-57.63-161.54-98.24-135.79-57.09-278.7-66.38-424.79-27.6-8.04 2.72-65.11 21.47-142.4 32.12-48.17 6.65-94.26 8.74-137 6.23-38.44-2.26-74.27-8.27-107.02-17.94 6.92 31.43 22.63 76.27 58 106.27 29.49 25 68.61 35.95 116.45 32.63 10.24-1.27 16.35-1.64 17.14-1.68 12.89-.74 24.07 8.88 25.26 21.76 1.18 12.87-8.04 24.37-20.86 26-5.51.71-10.94 1.26-16.29 1.67-22.07 2.8-66.75 10.39-117.74 29.74-66.83 25.36-121.87 61.48-164.43 107.79 53.12-17.31 126.94-34.81 202.17-31.67 9.11.38 17.21 5.89 20.92 14.22a23.998 23.998 0 0 1-3.42 25.05c-.66.8-67.1 81.76-132.57 203.52-54.28 100.93-117.99 249.49-129.51 406.42 41.29-27.7 110.91-66.82 198.57-87.23 7.95-1.85 16.3.47 22.16 6.16s8.42 13.97 6.81 21.97c-.06.3-7.42 39.71 4.75 97.25 12.9 61.01 41.75 118.49 85.95 171.46 3.99-53.71 14.26-134.64 40.71-199.6 4.7-11.55 17.5-17.73 29.41-14.01 11.88 3.71 18.98 15.73 16.33 27.88-.41 2.23-9.15 53.56 21.96 120.92 37.01 80.11 115.53 151.37 228.64 208.06-19.84-55.1-45.71-140.82-45.71-213.21 0-12.15 9.04-22.49 21.1-23.94 12.04-1.44 23.24 6.2 26.14 17.96.53 1.93 15.53 54.65 71.83 109.92 67.3 66.07 166.61 109.44 289.18 126.69-10.67-25.84-21.55-60.75-31.02-99.94-10.39-43.01-24.12-111.99-30.46-196.39-9.06-120.52-4.33-292.66 66.48-441.95 14.4 8.75 28.33 16.67 41.82 23.83-69.48 148.77-70.09 323.14-57.68 445.85 6.72 66.36 19.22 134.1 35.21 190.73 15.39 54.54 28.29 78.94 33.12 85.5 8.84 4.18 14.56 13.55 13.64 23.84-1.12 12.46-11.58 21.86-23.88 21.86-.65 0-1.3-.03-1.96-.08-87.79-7.09-166.04-25.7-232.6-55.32-53.95-24.01-100.39-55.27-138.04-92.9a386.235 386.235 0 0 1-16.71-17.8c18.73 70.95 45.27 131.45 45.68 132.39 3.98 9 2.06 19.52-4.84 26.54-6.9 7.01-17.39 9.11-26.45 5.27-85.88-36.3-156.78-79.71-210.75-129.02-44-40.2-76.98-84.44-98.01-131.49-2.71-6.08-5.16-12.04-7.36-17.88-10.09 66.3-10.3 123.58-10.3 124.49a24.003 24.003 0 0 1-40.68 17.25c-40.49-39.14-73.21-81.85-97.26-126.95-19.37-36.35-33.18-74.31-41.03-112.82-6.33-31.04-7.76-57.53-7.45-77.13-111.89 34.03-186.52 98.37-187.32 99.08a24.041 24.041 0 0 1-25.73 3.78c-8.57-3.9-14.08-12.43-14.08-21.84 0-81.97 14.54-169.34 43.22-259.68 22.8-71.81 54.54-145.7 94.35-219.61C433.86 824 473.83 764.91 500.2 728.61c-109.97 8.51-208.49 56.27-209.61 56.82-9.49 4.66-20.92 2.57-28.13-5.16s-8.53-19.26-3.22-28.41c28.27-48.77 66.11-91.11 112.47-125.85 36.82-27.6 79.04-50.45 125.48-67.91 4.9-1.85 9.74-3.59 14.51-5.24-12.25-6.32-23.7-14.01-34.33-23.06-75.37-64.19-79.83-173.06-79.98-177.66a24.003 24.003 0 0 1 33.27-22.93c85.18 35.72 186.52 31.82 256.53 22.26 77.24-10.55 134.54-30.17 135.11-30.37.55-.19 1.12-.36 1.67-.51 86.62-23.09 173.77-30.28 259.02-21.37 68.23 7.13 135.34 24.53 199.47 51.71 109.41 46.38 171.97 104.87 174.58 107.34.45.43.89.88 1.31 1.35z" opacity="1" data-original="#212121" class=""></path>
        <path fill="#982690" d="M1535.23 623.27c-.34 10.25-1.79 20.39-4.33 30.42-2.39 9.41-10.04 16.1-19.01 17.73-1.9.08-3.81.2-5.71.33h-.03c-1.46-.09-2.94-.32-4.41-.69-12.85-3.26-20.63-16.31-17.37-29.16a93.916 93.916 0 0 0 2.64-16.54c16.18-1.83 32.31-2.52 48.22-2.09z" opacity="1" data-original="#212121" class=""></path>
        <path fill="#982690" d="M1511.89 671.42c-1.85.34-3.77.46-5.71.33 1.9-.13 3.81-.25 5.71-.33zM1501.74 671.06c1.47.37 2.95.6 4.41.69-24.84 1.68-50.06 6.49-74.78 14.43-2.76 20.83-10.54 57.99-32.37 97.03-19.14 34.23-45.13 62.98-77.25 85.46-14.49 10.15-30.23 19-47.13 26.52 9.61 1.49 19.81 2.93 30.52 4.25 4.53.56 9.22 1.11 14.05 1.64v.04c-8.69-.91-17.58 2.97-22.67 10.81-7.22 11.12-4.06 25.98 7.06 33.2 1.57 1.02 3.13 2.02 4.68 3.02-3.45-.39-6.83-.8-10.13-1.21-78.31-9.78-129.37-24.88-131.5-25.52-10.82-3.24-17.92-13.57-17.06-24.83s9.46-20.39 20.64-21.94c87.36-12.07 149.9-50.12 185.9-113.1 27.28-47.74 28.78-93.06 28.79-93.51.19-9.85 6.37-18.5 15.6-21.94 28.31-10.57 57.48-17.47 86.51-20.74a93.916 93.916 0 0 1-2.64 16.54c-3.26 12.85 4.52 25.9 17.37 29.16z" opacity="1" data-original="#212121" class=""></path>
        <path fill="#efeef7" d="M1423.46 492.6c45.3 50.32 66.23 93.96 63.55 132.76-29.03 3.27-58.2 10.17-86.51 20.74-9.23 3.44-15.41 12.09-15.6 21.94-.01.45-1.51 45.77-28.79 93.51-36 62.98-98.54 101.03-185.9 113.1-11.18 1.55-19.78 10.68-20.64 21.94s6.24 21.59 17.06 24.83c2.13.64 53.19 15.74 131.5 25.52 3.3.41 6.68.82 10.13 1.21 6.9 4.43 13.7 8.67 20.4 12.74-70.81 149.29-75.54 321.43-66.48 441.95 6.34 84.4 20.07 153.38 30.46 196.39 9.47 39.19 20.35 74.1 31.02 99.94-122.57-17.25-221.88-60.62-289.18-126.69-56.3-55.27-71.3-107.99-71.83-109.92-2.9-11.76-14.1-19.4-26.14-17.96-12.06 1.45-21.1 11.79-21.1 23.94 0 72.39 25.87 158.11 45.71 213.21-113.11-56.69-191.63-127.95-228.64-208.06-31.11-67.36-22.37-118.69-21.96-120.92 2.65-12.15-4.45-24.17-16.33-27.88-11.91-3.72-24.71 2.46-29.41 14.01-26.45 64.96-36.72 145.89-40.71 199.6-44.2-52.97-73.05-110.45-85.95-171.46-12.17-57.54-4.81-96.95-4.75-97.25 1.61-8-.95-16.28-6.81-21.97s-14.21-8.01-22.16-6.16c-87.66 20.41-157.28 59.53-198.57 87.23 11.52-156.93 75.23-305.49 129.51-406.42 65.47-121.76 131.91-202.72 132.57-203.52 5.8-7.02 7.13-16.73 3.42-25.05a23.995 23.995 0 0 0-20.92-14.22c-75.23-3.14-149.05 14.36-202.17 31.67 42.56-46.31 97.6-82.43 164.43-107.79 50.99-19.35 95.67-26.94 117.74-29.74 5.35-.41 10.78-.96 16.29-1.67 12.82-1.63 22.04-13.13 20.86-26-1.19-12.88-12.37-22.5-25.26-21.76-.79.04-6.9.41-17.14 1.68-47.84 3.32-86.96-7.63-116.45-32.63-35.37-30-51.08-74.84-58-106.27 32.75 9.67 68.58 15.68 107.02 17.94 42.74 2.51 88.83.42 137-6.23 77.29-10.65 134.36-29.4 142.4-32.12 146.09-38.78 289-29.49 424.79 27.6 96.59 40.61 155.09 92.38 161.54 98.24zm-137.08 136.46c2.44-13.03-6.15-25.57-19.18-28.01-13.03-2.43-25.57 6.16-28 19.19-.03.13-3.63 13.98-21.23 21.03-9.27 3.71-24.23 6.37-47.51 2.91-11.74-1.74-25.59-5.03-41.89-10.53-9.88-3.33-20.22-7.33-31.01-11.98-.84-.42-1.7-.8-2.58-1.12-23.35-10.22-48.79-23.46-76.2-39.67-22.47-13.28-46.26-28.55-71.32-45.78-10.01-6.88-20.23-14.07-30.64-21.58-10.75-7.75-25.75-5.31-33.5 5.44s-5.31 25.75 5.44 33.5c3.07 2.21 6.13 4.4 9.17 6.56-20.88 28.04-32.48 62.37-32.48 97.63 0 89.96 73.18 163.14 163.13 163.14 41.29 0 80.7-15.43 110.94-43.45 24.13-22.35 40.73-51.09 48.06-82.62 1.09.03 2.17.04 3.25.04 16.74 0 31.76-2.64 44.98-7.93 34.1-13.65 47.83-42.11 50.57-56.77zm-51.88 489.26c2.53-13.01-5.96-25.61-18.97-28.14-13.02-2.53-25.61 5.96-28.15 18.97-19.89 102.22-23.97 218.77-11.77 337.05 1.27 12.35 11.7 21.54 23.85 21.54.82 0 1.65-.04 2.49-.13 13.18-1.36 22.77-13.15 21.41-26.33-11.72-113.64-7.87-225.32 11.14-322.96zM584.13 848.44c7.36-11.02 4.39-25.92-6.63-33.28s-25.93-4.39-33.29 6.63c-24.38 36.52-49.3 78.21-72.04 120.54-28.93 53.77-53.4 107.78-72.74 160.55-4.56 12.45 1.84 26.24 14.28 30.79 2.73 1 5.51 1.48 8.26 1.48 9.78 0 18.97-6.03 22.53-15.75 18.55-50.64 42.08-102.56 69.95-154.34 22.04-41.02 46.13-81.34 69.68-116.62z" opacity="1" data-original="#efeef7" class=""></path>
        <g fill="#212121">
            <path d="M1417.65 954.89c-11.54-.09-22.78-.38-33.66-.83.91-8.76-3.08-17.59-10.76-22.59 15.21 8.7 30.02 16.51 44.42 23.42z" fill="#982690" opacity="1" data-original="#212121" class=""></path>
            <path d="M1373.23 931.47c7.68 5 11.67 13.83 10.76 22.59-17.82-.74-34.7-1.9-50.4-3.31 1.71-3.45 3.47-6.89 5.26-10.31 6.08-11.6 20.32-16.17 31.99-10.34.8.47 1.59.92 2.39 1.37z" fill="#982690" opacity="1" data-original="#212121" class=""></path>
            <path d="M1383.99 954.06c-.31 2.94-1.17 5.87-2.62 8.65-3.8 7.27-7.43 14.6-10.89 22.01-13.49-7.16-27.42-15.08-41.82-23.83 1.6-3.39 3.25-6.77 4.93-10.14 15.7 1.41 32.58 2.57 50.4 3.31zM1371.25 930.31c.69.36 1.35.75 1.98 1.16-.8-.45-1.59-.9-2.39-1.37.14.07.27.14.41.21zM1370.84 930.1c-11.67-5.83-25.91-1.26-31.99 10.34-1.79 3.42-3.55 6.86-5.26 10.31-8.83-.8-17.28-1.67-25.33-2.6-1.55-1-3.11-2-4.68-3.02-11.12-7.22-14.28-22.08-7.06-33.2 5.09-7.84 13.98-11.72 22.67-10.81 3.64.39 7.25 1.62 10.53 3.75 14.01 9.1 27.72 17.51 41.12 25.23z" fill="#982690" opacity="1" data-original="#212121" class=""></path>
            <path d="M1333.59 950.75c-1.68 3.37-3.33 6.75-4.93 10.14-6.7-4.07-13.5-8.31-20.4-12.74 8.05.93 16.5 1.8 25.33 2.6zM1267.2 601.05c13.03 2.44 21.62 14.98 19.18 28.01-2.74 14.66-16.47 43.12-50.57 56.77-13.22 5.29-28.24 7.93-44.98 7.93-1.08 0-2.16-.01-3.25-.04 1.81-7.78 3.05-15.73 3.7-23.79 1.04-12.83-8.2-24.1-20.82-25.74v-.01c23.28 3.46 38.24.8 47.51-2.91 17.6-7.05 21.2-20.9 21.23-21.03 2.43-13.03 14.97-21.62 28-19.19zM1215.53 1090.18c13.01 2.53 21.5 15.13 18.97 28.14-19.01 97.64-22.86 209.32-11.14 322.96 1.36 13.18-8.23 24.97-21.41 26.33-.84.09-1.67.13-2.49.13-12.15 0-22.58-9.19-23.85-21.54-12.2-118.28-8.12-234.83 11.77-337.05 2.54-13.01 15.13-21.5 28.15-18.97z" fill="#982690" opacity="1" data-original="#212121" class=""></path>
            <path d="M1170.46 644.19c12.62 1.64 21.86 12.91 20.82 25.74-.65 8.06-1.89 16.01-3.7 23.79-14.68-.29-30.63-2.56-47.82-6.8 1.85-6.72 3.1-13.7 3.68-20.86 1.06-13.21 12.62-23.07 25.85-21.99.39.03.78.07 1.17.12z" fill="#982690" opacity="1" data-original="#212121" class=""></path>
            <path d="M1187.58 693.72c-7.33 31.53-23.93 60.27-48.06 82.62-30.24 28.02-69.65 43.45-110.94 43.45-89.95 0-163.13-73.18-163.13-163.14 0-35.26 11.6-69.59 32.48-97.63 13.48 9.59 26.66 18.68 39.52 27.26-15.59 20.06-24 44.47-24 70.37 0 63.49 51.64 115.14 115.13 115.14 52.41 0 97.74-35.9 111.18-84.87 17.19 4.24 33.14 6.51 47.82 6.8z" fill="#982690" opacity="1" data-original="#212121" class=""></path>
            <path d="M1170.46 644.18v.01c-.39-.05-.78-.09-1.17-.12-13.23-1.08-24.79 8.78-25.85 21.99-.58 7.16-1.83 14.14-3.68 20.86-8.54-2.11-17.39-4.71-26.54-7.8-1.23-.42-2.47-.84-3.72-1.28a83.219 83.219 0 0 0 2.72-21.19c0-6.82-.72-13.12-2.21-19.25-1.72-7.09-6.43-12.66-12.45-15.73 10.79 4.65 21.13 8.65 31.01 11.98 16.3 5.5 30.15 8.79 41.89 10.53z" fill="#982690" opacity="1" data-original="#212121" class=""></path>
        </g>
        <path fill="#cd87c8" d="M1113.22 679.12c9.15 3.09 18 5.69 26.54 7.8-13.44 48.97-58.77 84.87-111.18 84.87-63.49 0-115.13-51.65-115.13-115.14 0-25.9 8.41-50.31 24-70.37 8.99 6 17.84 11.76 26.52 17.26-12.01 14.62-18.92 33.22-18.92 53.11 0 46.13 37.47 83.65 83.53 83.65 38.81 0 71.52-26.56 80.92-62.46 1.25.44 2.49.86 3.72 1.28z" opacity="1" data-original="#b87d72" class=""></path>
        <path fill="#982690" d="M1110.01 637.4c1.49 6.13 2.21 12.43 2.21 19.25 0 7.32-.94 14.42-2.72 21.19-14.33-5-29.46-11.2-45.37-18.59.06-.86.09-1.73.09-2.6 0-2.95-.28-5.54-.85-7.91-3.13-12.88 4.77-25.86 17.65-28.99 4.81-1.17 9.63-.8 13.96.8.86.38 1.72.75 2.58 1.12 6.02 3.07 10.73 8.64 12.45 15.73z" opacity="1" data-original="#212121" class=""></path>
        <path fill="#982690" d="M1094.98 620.55c.88.32 1.74.7 2.58 1.12-.86-.37-1.72-.74-2.58-1.12zM1109.5 677.84c-9.4 35.9-42.11 62.46-80.92 62.46-46.06 0-83.53-37.52-83.53-83.65 0-19.89 6.91-38.49 18.92-53.11 14.49 9.19 28.56 17.68 42.17 25.47-8.17 6.63-13.09 16.68-13.09 27.64 0 19.66 15.94 35.65 35.53 35.65 18.78 0 34.21-14.6 35.55-33.05 15.91 7.39 31.04 13.59 45.37 18.59z" opacity="1" data-original="#212121" class=""></path>
        <path fill="#982690" d="M1094.98 620.55c-4.33-1.6-9.15-1.97-13.96-.8-12.88 3.13-20.78 16.11-17.65 28.99.57 2.37.85 4.96.85 7.91 0 .87-.03 1.74-.09 2.6-18.32-8.51-37.66-18.6-57.99-30.24 2.71-2.2 5.77-4.03 9.13-5.39 12.29-4.98 18.21-18.97 13.23-31.26a23.895 23.895 0 0 0-9.73-11.46l.01-.02c27.41 16.21 52.85 29.45 76.2 39.67z" opacity="1" data-original="#212121" class=""></path>
        <path fill="#ffffff" d="M1064.13 659.25c-1.34 18.45-16.77 33.05-35.55 33.05-19.59 0-35.53-15.99-35.53-35.65 0-10.96 4.92-21.01 13.09-27.64 20.33 11.64 39.67 21.73 57.99 30.24z" opacity="1" data-original="#ffffff" class=""></path>
        <path fill="#982690" d="M1028.5 592.36c4.98 12.29-.94 26.28-13.23 31.26a35.751 35.751 0 0 0-9.13 5.39c-13.61-7.79-27.68-16.28-42.17-25.47 8.67-10.55 19.99-19.02 33.27-24.4 7.33-2.97 15.26-2.06 21.53 1.76 4.24 2.59 7.72 6.5 9.73 11.46z" opacity="1" data-original="#212121" class=""></path>
        <path fill="#982690" d="m1018.78 580.88-.01.02c-6.27-3.82-14.2-4.73-21.53-1.76-13.28 5.38-24.6 13.85-33.27 24.4-8.68-5.5-17.53-11.26-26.52-17.26 3.79-4.91 8.03-9.55 12.68-13.9 9.68-9.06 10.19-24.24 1.14-33.93a24.383 24.383 0 0 0-3.83-3.32l.02-.03c25.06 17.23 48.85 32.5 71.32 45.78z" opacity="1" data-original="#212121" class=""></path>
        <path fill="#982690" d="M951.27 538.45c9.05 9.69 8.54 24.87-1.14 33.93-4.65 4.35-8.89 8.99-12.68 13.9-12.86-8.58-26.04-17.67-39.52-27.26 5.79-7.76 12.27-15.03 19.42-21.71 8.42-7.87 21-8.51 30.09-2.18 1.36.95 2.65 2.06 3.83 3.32z" opacity="1" data-original="#212121" class=""></path>
        <path fill="#982690" d="m947.46 535.1-.02.03c-9.09-6.33-21.67-5.69-30.09 2.18a163.457 163.457 0 0 0-19.42 21.71c-3.04-2.16-6.1-4.35-9.17-6.56-10.75-7.75-13.19-22.75-5.44-33.5s22.75-13.19 33.5-5.44c10.41 7.51 20.63 14.7 30.64 21.58zM577.5 815.16c11.02 7.36 13.99 22.26 6.63 33.28-23.55 35.28-47.64 75.6-69.68 116.62-27.87 51.78-51.4 103.7-69.95 154.34-3.56 9.72-12.75 15.75-22.53 15.75-2.75 0-5.53-.48-8.26-1.48-12.44-4.55-18.84-18.34-14.28-30.79 19.34-52.77 43.81-106.78 72.74-160.55 22.74-42.33 47.66-84.02 72.04-120.54 7.36-11.02 22.27-13.99 33.29-6.63z" opacity="1" data-original="#212121" class=""></path>
    </g>
</svg>